<svg version="1.0" xmlns="http://www.w3.org/2000/svg"
 width="1175.000000pt" height="1280.000000pt" viewBox="0 0 1175.000000 1280.000000"
 preserveAspectRatio="xMidYMid meet">
<metadata>
Created by potrace 1.15, written by Peter Selinger 2001-2017
</metadata>
<g transform="translate(0.000000,1280.000000) scale(0.100000,-0.100000)"
fill="#009688" stroke="none">
<path d="M6585 12793 c-22 -1 -103 -7 -180 -13 -862 -67 -1772 -347 -2581
-795 -1152 -639 -2122 -1587 -2822 -2760 -131 -220 -373 -700 -466 -928 -279
-675 -444 -1334 -513 -2052 -12 -132 -17 -278 -17 -545 -1 -383 6 -503 50
-828 240 -1796 1306 -3259 2883 -3959 165 -73 276 -114 1146 -421 713 -253
795 -280 1002 -333 663 -169 1415 -204 2138 -98 1172 172 2324 693 3300 1494
376 308 839 771 978 978 97 145 172 327 208 508 10 51 12 455 10 1929 -3 2033
-1 1976 -60 2146 -74 215 -239 407 -436 507 -81 40 -1512 544 -1597 561 -173
36 -132 41 -2095 -279 -994 -162 -1842 -304 -1883 -315 -433 -111 -808 -496
-925 -947 -81 -312 -36 -627 125 -863 84 -124 229 -246 357 -301 104 -45 1492
-532 1558 -547 44 -10 116 -15 195 -15 109 1 195 12 679 92 305 50 555 90 557
89 1 -2 4 -275 5 -608 l2 -604 -49 -43 c-127 -114 -374 -305 -514 -398 -569
-381 -1155 -607 -1815 -701 -135 -19 -642 -30 -771 -16 -88 9 -95 12 -166 60
-635 439 -1090 1123 -1272 1912 -270 1172 40 2480 839 3545 716 954 1747 1607
2816 1784 257 42 308 46 649 46 397 0 347 14 585 -165 88 -66 187 -133 220
-149 70 -35 1410 -513 1535 -548 223 -62 495 -32 735 82 252 120 490 356 621
618 142 281 173 623 81 892 -74 216 -172 334 -451 542 -333 248 -723 465
-1106 616 -158 62 -1588 567 -1730 611 -368 114 -775 187 -1200 216 -132 9
-527 11 -625 3z"/>
</g>
</svg>

